<svg width="32" height="32" viewBox="0 0 32 32" fill="none" xmlns="http://www.w3.org/2000/svg">
  <path d="M8 12C8 8.68629 10.6863 6 14 6H18C21.3137 6 24 8.68629 24 12V16C24 19.3137 21.3137 22 18 22H14C10.6863 22 8 19.3137 8 16V12Z" stroke="#4F46E5" stroke-width="2" fill="none"/>
  <circle cx="12" cy="10" r="1.5" fill="#4F46E5"/>
  <circle cx="16" cy="8" r="1.5" fill="#4F46E5"/>
  <circle cx="20" cy="10" r="1.5" fill="#4F46E5"/>
  <circle cx="12" cy="14" r="1.5" fill="#4F46E5"/>
  <circle cx="16" cy="16" r="1.5" fill="#4F46E5"/>
  <circle cx="20" cy="14" r="1.5" fill="#4F46E5"/>
  <circle cx="14" cy="20" r="1.5" fill="#4F46E5"/>
  <circle cx="18" cy="20" r="1.5" fill="#4F46E5"/>
  <line x1="12" y1="10" x2="16" y2="8" stroke="#4F46E5" stroke-width="1" opacity="0.6"/>
  <line x1="16" y1="8" x2="20" y2="10" stroke="#4F46E5" stroke-width="1" opacity="0.6"/>
  <line x1="12" y1="10" x2="12" y2="14" stroke="#4F46E5" stroke-width="1" opacity="0.6"/>
  <line x1="20" y1="10" x2="20" y2="14" stroke="#4F46E5" stroke-width="1" opacity="0.6"/>
  <line x1="12" y1="14" x2="16" y2="16" stroke="#4F46E5" stroke-width="1" opacity="0.6"/>
  <line x1="16" y1="16" x2="20" y2="14" stroke="#4F46E5" stroke-width="1" opacity="0.6"/>
  <line x1="16" y1="16" x2="14" y2="20" stroke="#4F46E5" stroke-width="1" opacity="0.6"/>
  <line x1="16" y1="16" x2="18" y2="20" stroke="#4F46E5" stroke-width="1" opacity="0.6"/>
  <rect x="10" y="24" width="4" height="2" rx="1" fill="#4F46E5"/>
  <rect x="18" y="24" width="4" height="2" rx="1" fill="#4F46E5"/>
  <line x1="14" y1="22" x2="14" y2="24" stroke="#4F46E5" stroke-width="1"/>
  <line x1="18" y1="22" x2="18" y2="24" stroke="#4F46E5" stroke-width="1"/>
  <circle cx="16" cy="14" r="12" fill="none" stroke="#4F46E5" stroke-width="0.5" opacity="0.2"/>
</svg>
